PathFileType	4	(X/Y/Z)	OpenSim_Sub06_CSStiffKnee_Gyro.trc
DataRate	CameraRate	NumFrames	NumMarkers	Units	OrigDataRate	OrigDataStartFrame	OrigNumFrames
100	100	37	8	m	100	5374	7164
Frame#	Time	torso_imu_offset_imu	pelvis_imu_offset_imu	tibia_r_imu_offset_imu	femur_r_imu_offset_imu	tibia_l_imu_offset_imu	femur_l_imu_offset_imu	toes_r_imu_offset_imu	toes_l_imu_offset_imu
				X1	Y1	Z1	X2	Y2	Z2	X3	Y3	Z3	X4	Y4	Z4	X5	Y5	Z5	X6	Y6	Z6	X7	Y7	Z7	X8		Y8	Z8	

5374	53.73000000	-0.48176310	-0.19465291	-0.39105107	-0.11563913	0.12608319	0.50223237	-3.07142819	-0.27800934	1.64043065	-0.19558185	0.60999010	0.91220988	0.19113110	-0.19243054	0.50207876	-0.04171758	-0.31930561	0.96364015	-0.83599490	2.52504556	1.38966014	-0.02143708	-0.23072845	0.05081182
5375	53.74000000	-0.46229679	-0.21587629	-0.39895983	-0.18494785	0.05760629	0.52072848	-2.97725423	-0.03835286	2.18659680	-0.41810792	0.56064264	0.82237064	0.20758776	-0.16617441	0.50646924	0.04773455	-0.46277183	1.04839339	-0.70258543	2.70885781	1.56754749	-0.04754577	-0.23848673	0.06787787
5376	53.75000000	-0.47060800	-0.22475835	-0.37406425	-0.19381556	0.03483056	0.51052041	-2.53981942	0.14488952	2.68604425	-0.46942811	0.50128528	0.75108168	0.14465947	-0.15000460	0.56478539	0.16638479	-0.45215801	1.07516856	-0.60098668	2.89615893	1.65257548	-0.06694967	-0.26879254	0.09077924
5377	53.76000000	-0.49552648	-0.26541488	-0.33536702	-0.17213041	0.05215668	0.45840690	-1.85162125	0.26975017	3.16737976	-0.45163887	0.44816720	0.75886040	0.06052606	-0.12765833	0.60186136	0.22183790	-0.30869967	1.07025423	-0.58813006	3.07969177	1.69654063	-0.02315933	-0.27076149	0.09413314
5378	53.77000000	-0.51810423	-0.33760984	-0.31320986	-0.13660606	0.10318797	0.41601128	-1.20354498	0.33638735	3.60063077	-0.45162765	0.39582528	0.81778571	0.00808503	-0.09327312	0.60826877	0.26444256	-0.13969152	0.96201166	-0.62767599	3.28141304	1.71124987	-0.10200263	-0.30721525	0.11983236
5379	53.78000000	-0.50768795	-0.40591546	-0.31803151	-0.08746107	0.13759932	0.31632362	-0.79402407	0.34768865	3.88424035	-0.48722261	0.33573898	0.88338268	0.00925130	-0.05974295	0.61166266	0.35524999	0.01999349	0.85277823	-0.67211607	3.47471232	1.70996661	-0.13818223	-0.31643851	0.14358509
5380	53.79000000	-0.45722474	-0.42956350	-0.32141990	-0.05160206	0.15199898	0.20333928	-0.39678718	0.34367881	3.95481941	-0.49560523	0.25806851	0.90997131	0.01103198	-0.03822493	0.65413237	0.45220982	0.13937205	0.73244929	-0.69798842	3.55683293	1.69760468	-0.08150631	-0.30331099	0.15409062
5381	53.80000000	-0.41649583	-0.43880329	-0.31387636	0.00163859	0.16414779	0.12777172	0.14029512	0.32489961	3.85196589	-0.39811395	0.15539372	0.87972079	0.04940971	-0.02552065	0.70887864	0.45429346	0.11450408	0.60306776	-0.70910423	3.54699017	1.72242821	-0.11962107	-0.28246111	0.15933128
5382	53.81000000	-0.36996363	-0.43114228	-0.30733006	0.05799981	0.19068817	0.04866720	0.60259711	0.26380703	3.74380309	-0.19361738	0.04219981	0.78887974	0.08579055	0.00416142	0.74081641	0.39685262	0.06994801	0.51508612	-0.68354072	3.47806120	1.80093067	-0.04210660	-0.26208154	0.17036419
5383	53.82000000	-0.34085080	-0.43290925	-0.31367800	0.11930278	0.22909837	0.00561942	0.89881103	0.20318470	3.75676808	0.03914204	-0.06387495	0.67008433	0.09839324	0.01212369	0.73970712	0.30417070	0.01654426	0.46842667	-0.59541549	3.37867061	1.91294656	-0.11237670	-0.21845053	0.20099539
5384	53.83000000	-0.32876652	-0.43625764	-0.32826160	0.15972228	0.25803271	-0.01688913	1.14044255	0.20031950	3.88651688	0.23177626	-0.14690023	0.56193689	0.11329975	0.02013004	0.73036614	0.26612007	0.02512794	0.50736289	-0.50659924	3.26696758	2.05390856	-0.07112358	-0.16071694	0.22955027
5385	53.84000000	-0.31851170	-0.41760434	-0.32394212	0.17747461	0.26434265	-0.02236488	1.34931609	0.24954884	4.05261639	0.41931992	-0.21492190	0.45659700	0.11274315	0.02514811	0.74563811	0.26369085	0.03943962	0.58828047	-0.49734662	3.12448291	2.23779861	-0.08488367	-0.11684933	0.27680502
5386	53.85000000	-0.31177424	-0.38969264	-0.31688383	0.17702841	0.25167167	0.01576797	1.49323165	0.31966634	4.16743560	0.61465591	-0.25430073	0.36076755	0.12876326	0.02293265	0.75845722	0.30480857	0.03530766	0.67120489	-0.59227211	2.91386862	2.46747843	-0.07017531	-0.04044981	0.30131343
5387	53.86000000	-0.29235175	-0.36663185	-0.30942247	0.15852620	0.22887399	0.04613688	1.53123774	0.29815645	4.19977484	0.81893301	-0.25924799	0.25665508	0.15586295	0.01890096	0.75115933	0.33466154	0.01830785	0.71859773	-0.68609536	2.61952777	2.70510670	-0.08521530	-0.04554934	0.33509035
5388	53.87000000	-0.27296977	-0.33637343	-0.29304405	0.13431363	0.20118611	0.09835834	1.46206357	0.19525785	4.18721307	1.01016909	-0.21520650	0.11992296	0.20883224	0.02693660	0.71588937	0.32380511	0.00313373	0.73933858	-0.67363693	2.28060935	2.92258442	-0.12128216	-0.03639220	0.35610001
5389	53.88000000	-0.25026514	-0.28993799	-0.27382998	0.11173578	0.15915079	0.13830266	1.38389051	0.09545219	4.16184530	1.21009473	-0.12542971	-0.03180128	0.24114406	0.03452499	0.71203152	0.25064788	-0.01119005	0.74401512	-0.53494935	1.95397210	3.11887930	-0.08988230	-0.03650975	0.33891886
5390	53.89000000	-0.23288501	-0.23893648	-0.24576524	0.10775410	0.10175809	0.15592843	1.36201534	0.04648648	4.10612416	1.41983116	-0.03397140	-0.18292703	0.24774755	0.03835503	0.73678088	0.21735368	-0.02668439	0.71286419	-0.29648993	1.68387215	3.30347296	-0.07943566	-0.06877365	0.31981034
5391	53.90000000	-0.22006570	-0.19308580	-0.20909088	0.11744301	0.02656575	0.17186611	1.47951666	0.10533470	3.98173089	1.58883717	-0.03828247	-0.29332531	0.23683675	0.06976438	0.76886753	0.18946937	-0.01032336	0.67852085	-0.07761523	1.31853283	3.51300018	-0.04161803	-0.05333742	0.28064143
5392	53.91000000	-0.19555307	-0.15479819	-0.17511287	0.12763223	-0.04797199	0.18800175	1.76058415	0.25533962	3.72753392	1.66570708	-0.14942568	-0.26596312	0.20506866	0.11173586	0.79391755	0.13448659	0.03529311	0.63680285	-0.20849363	0.95273901	3.56893742	-0.05789271	-0.11433376	0.26264016
5393	53.92000000	-0.16783407	-0.08900301	-0.13194980	0.17921960	-0.09897284	0.17848439	1.65825876	0.11898333	3.33710286	1.61898644	-0.29461954	-0.14186303	0.16336037	0.17218316	0.81892588	0.14989150	0.12774639	0.63241842	-0.18284783	0.98097868	3.16636083	-0.04925686	-0.15512709	0.26937141
5394	53.93000000	-0.13468322	-0.03997207	-0.09789110	0.28116464	-0.15432004	0.15552838	0.78446085	-0.23614516	2.88330915	1.45524522	-0.48149314	-0.04969120	0.12036136	0.23116572	0.87482782	0.14186767	0.15385821	0.61491737	0.32853426	1.09817428	2.57448278	-0.06750269	-0.19493097	0.29278307
5395	53.94000000	-0.09151501	-0.01560337	-0.07110166	0.38504311	-0.19185221	0.17779049	0.07052137	-0.20154956	2.49281785	1.21173729	-0.70343689	0.02315196	0.10443473	0.24156363	0.96325007	0.16375250	0.17028238	0.59731070	0.17043520	1.12802905	2.04030717	-0.07147247	-0.22311292	0.31803163
5396	53.95000000	-0.04111193	0.01499791	-0.02550518	0.47740362	-0.21648581	0.17178486	0.04614627	-0.08511004	2.21437348	0.94690038	-0.80956941	0.09488469	0.16774693	0.26765697	1.06312330	0.20848469	0.16661348	0.56836292	-0.49209638	0.98152419	1.54326224	-0.10883549	-0.30701282	0.35755469
5397	53.96000000	0.02041378	0.04740499	0.02119388	0.53665598	-0.22970979	0.16322613	-0.14180199	-0.28800498	1.81929551	0.60562703	-0.67656746	0.18151726	0.28258254	0.32276937	1.15098152	0.26901945	0.14183961	0.50500025	-1.17674383	0.67267528	1.00501236	-0.19585526	-0.40944479	0.41557769
5398	53.97000000	0.09373805	0.07116602	0.05088097	0.57968386	-0.24303781	0.14968720	-0.42219512	-0.54955351	1.17549422	0.19270736	-0.40988186	0.29171568	0.34778020	0.37794201	1.24687096	0.27922014	0.08984058	0.40915042	-1.56402461	0.31041720	0.46081475	-0.20958671	-0.49261376	0.46113164
5399	53.98000000	0.15225038	0.10605579	0.08885247	0.61214653	-0.25343108	0.13154582	-0.56680007	-0.65054696	0.46014792	-0.18083253	-0.22753632	0.36881648	0.36492382	0.41583763	1.38018930	0.30030528	0.08073080	0.30837971	-1.68599640	-0.04465530	0.00911616	-0.27307721	-0.63145732	0.49076869
5400	53.99000000	0.22299779	0.18617814	0.14686603	0.66047475	-0.27571140	0.12730832	-0.74353610	-0.65226617	-0.09418674	-0.34944049	-0.22642293	0.37487537	0.35950902	0.45949052	1.51197665	0.36648233	0.12191720	0.21586787	-1.55253321	-0.36122587	-0.22356506	-0.27460425	-0.73302345	0.48901820
5401	54	0.30157004	0.27663615	0.18672451	0.70538505	-0.29573323	0.09085874	-0.90092106	-0.69451443	-0.49339600	-0.25878920	-0.34402720	0.36122672	0.30931761	0.51148721	1.60807622	0.42001349	0.19738451	0.10136034	-1.33459549	-0.66539561	-0.55804744	-0.29987136	-0.89610106	0.51152870
5402	54.01000000	0.39086681	0.36360807	0.20043669	0.76730294	-0.32131844	0.06668122	-0.88289959	-0.71425396	-0.83486916	-0.09635670	-0.46451540	0.35098265	0.21412905	0.53545673	1.68762621	0.41873491	0.29246210	-0.02552545	1.46440907	-1.58080925	-1.52535020	-0.37779506	-1.07650452	0.54415939
5403	54.02000000	0.50017473	0.41206629	0.21162422	0.84836149	-0.36718104	0.01341388	-0.76739218	-0.64113688	-1.06955341	-0.02371862	-0.53624379	0.36415008	0.08251007	0.53157075	1.80567581	0.40412820	0.37525757	-0.12259153	5.03013991	-2.62366847	-2.09648951	-0.41045923	-1.24432297	0.56312072
5404	54.03000000	0.59921949	0.47013807	0.22964515	0.92265319	-0.42225367	-0.03853969	-0.70391102	-0.68675652	-1.27094548	-0.07473810	-0.57206123	0.36441678	0.00025174	0.50862552	1.96724866	0.37077529	0.45550741	-0.19566353	2.78941412	-3.25771882	-1.21470432	-0.39008734	-1.44390677	0.57738715
5405	54.04000000	0.66740439	0.53346646	0.25336409	1.01847056	-0.49261445	-0.04384974	-0.74400271	-0.70979798	-1.58526532	-0.17650719	-0.76606174	0.28205080	-0.02994967	0.48713966	2.13923777	0.25896972	0.51207790	-0.28812925	2.74436285	0.62829492	-0.44022454	-0.34923979	-1.70518593	0.59965842
5406	54.05000000	0.71834937	0.38264113	0.16958774	1.00443441	-0.71665800	0.06149721	-1.07049942	-0.58712737	-1.74132381	-0.45675877	-1.31625192	0.04502085	-0.11741604	0.48260549	2.26924526	0.16457031	0.60744045	-0.42596121	0.19645199	4.25331303	-1.34257270	-0.41986630	-2.14820032	0.64068750
5407	54.06000000	0.67295441	0.30200432	0.09437762	0.84567910	-1.05815086	0.31274820	-2.02897312	-0.46239399	-1.81805046	-0.93710558	-1.83038935	-0.25569392	-0.27591941	0.42923701	2.35878367	0.05983961	0.72999910	-0.67512903	-1.67431724	-1.28067460	-0.85618569	-0.48620398	-2.63311285	0.76406120
5408	54.07000000	0.50352448	0.39871111	0.19207588	0.79246558	-1.01375449	0.67237366	-1.17188631	-0.02991754	-2.05924523	-0.77874675	-1.39585042	-0.33432394	-0.35207327	0.30966340	2.47066802	-0.13624061	0.76133953	-0.93978212	2.19926057	1.01123227	0.01346032	-0.68579601	-3.14380927	0.98161493
5409	54.08000000	0.33669543	0.33132801	0.27186847	0.45662155	-0.46904253	0.71366664	1.13074121	0.28452127	-2.32644662	0.20945646	0.06681368	0.11979768	-0.42413218	0.14683193	2.63775432	-0.19317892	0.70259452	-1.12915638	-0.26162446	-0.14474080	-0.12725194	-0.67206127	-3.65854205	1.20501713
5410	54.09000000	0.25707993	0.18689225	0.30457636	-0.26154171	-0.03238657	0.33686214	2.33158508	0.11427142	-2.37559472	0.30795852	1.00638401	0.81219728	-0.43151309	-0.08727848	2.78392354	-0.08572143	0.62418562	-1.34741822	0.05035788	-0.19124722	0.03658929	-0.82151909	-4.17513937	1.47956917
